<?xml version="1.0"?>
<svg xmlns="http://www.w3.org/2000/svg" xmlns:xlink="http://www.w3.org/1999/xlink" xmlns:svgjs="http://svgjs.com/svgjs" version="1.1" width="512" height="512" x="0" y="0" viewBox="0 0 512 512" style="enable-background:new 0 0 512 512" xml:space="preserve" class=""><g transform="matrix(0.02,0,0,0.02,250.8800018692021,250.87985046386737)"><g xmlns="http://www.w3.org/2000/svg"><path d="m494.123 208.203c-5.239-8.799-10.188-17.111-12.876-25.391-2.855-8.794-3.814-18.751-4.828-29.293-1.622-16.845-3.298-34.264-13.302-48.01-10.108-13.889-26.226-20.862-41.813-27.606-9.653-4.176-18.77-8.121-26.127-13.475-7.218-5.253-13.695-12.637-20.553-20.454-11.268-12.844-22.919-26.125-39.499-31.508-15.863-5.151-32.793-1.398-49.166 2.23-10.047 2.227-20.436 4.529-29.959 4.529-9.522 0-19.912-2.303-29.959-4.529-16.373-3.628-33.304-7.381-49.167-2.229-16.579 5.383-28.23 18.664-39.498 31.508-6.857 7.816-13.335 15.2-20.553 20.453-2.54 1.849-5.438 3.635-8.86 5.46-3.655 1.949-5.037 6.492-3.088 10.147s6.492 5.036 10.148 3.087c4.042-2.156 7.519-4.304 10.627-6.567 8.567-6.235 15.906-14.6 23.003-22.689 10.388-11.84 20.199-23.024 32.855-27.134 11.979-3.888 26.216-.733 41.289 2.608 10.835 2.401 22.04 4.884 33.205 4.884s22.369-2.483 33.205-4.885c15.075-3.34 29.314-6.495 41.288-2.608 12.656 4.109 22.468 15.293 32.856 27.134 7.097 8.089 14.435 16.454 23.003 22.689 8.7 6.332 19.018 10.796 28.997 15.113 14.371 6.217 27.944 12.09 35.641 22.666 7.593 10.434 9.004 25.097 10.499 40.621 1.047 10.881 2.13 22.132 5.493 32.488 3.207 9.878 8.824 19.311 14.255 28.433 8.103 13.619 15.761 26.48 15.761 40.125s-7.658 26.507-15.766 40.124c-5.431 9.122-11.047 18.554-14.254 28.431-3.363 10.356-4.445 21.607-5.493 32.489-1.494 15.523-2.905 30.187-10.499 40.621-7.697 10.576-21.27 16.448-35.641 22.665-9.979 4.317-20.297 8.781-28.997 15.113-8.567 6.235-15.906 14.6-23.003 22.689-10.388 11.84-20.199 23.024-32.855 27.133-11.977 3.889-26.214.733-41.289-2.608-10.836-2.401-22.04-4.884-33.204-4.884-11.165 0-22.369 2.483-33.205 4.884-15.074 3.341-29.311 6.496-41.289 2.608-12.656-4.109-22.468-15.293-32.855-27.134-7.097-8.089-14.435-16.454-23.003-22.689-8.7-6.332-19.019-10.796-28.997-15.113-14.37-6.217-27.944-12.09-35.641-22.665-7.593-10.434-9.004-25.097-10.499-40.621-1.047-10.881-2.13-22.132-5.492-32.488-3.207-9.877-8.823-19.31-14.254-28.431-8.106-13.617-15.764-26.479-15.764-40.124s7.658-26.506 15.766-40.123c5.431-9.122 11.047-18.555 14.254-28.432 3.363-10.356 4.445-21.608 5.493-32.489 1.494-15.524 2.905-30.187 10.499-40.621 4.375-6.011 10.929-10.988 21.252-16.137 3.707-1.849 5.213-6.353 3.364-10.059-1.849-3.707-6.353-5.213-10.059-3.364-8.476 4.228-19.169 10.406-26.686 20.735-10.004 13.746-11.68 31.164-13.302 48.01-1.014 10.542-1.973 20.499-4.828 29.294-2.688 8.28-7.637 16.591-12.876 25.39-8.789 14.76-17.877 30.024-17.877 47.796 0 17.773 9.088 33.037 17.877 47.798 5.239 8.799 10.188 17.11 12.876 25.39 2.855 8.794 3.813 18.751 4.828 29.292 1.621 16.846 3.298 34.265 13.302 48.011 10.108 13.889 26.226 20.862 41.813 27.606 9.653 4.176 18.771 8.121 26.127 13.475 7.218 5.253 13.695 12.636 20.553 20.453 11.268 12.844 22.92 26.126 39.499 31.508 5.587 1.814 11.304 2.524 17.084 2.524 10.633 0 21.475-2.403 32.082-4.753 10.047-2.227 20.437-4.529 29.959-4.529 9.523 0 19.912 2.302 29.959 4.529 16.373 3.628 33.303 7.381 49.167 2.229 16.579-5.383 28.23-18.664 39.497-31.508 6.858-7.817 13.336-15.2 20.554-20.454 7.356-5.353 16.474-9.298 26.127-13.475 15.587-6.744 31.705-13.717 41.813-27.606 10.004-13.746 11.68-31.165 13.302-48.01 1.014-10.542 1.973-20.499 4.828-29.293 2.688-8.28 7.637-16.591 12.876-25.39 8.789-14.761 17.877-30.025 17.877-47.797s-9.088-33.036-17.877-47.797z" fill="#000000" data-original="#000000" style="" class=""/><path d="m72.054 196.233c-2.13 6.561-6.103 13.231-10.308 20.294-7.223 12.131-14.692 24.675-14.692 39.473s7.469 27.342 14.692 39.474c4.205 7.063 8.177 13.734 10.308 20.294 2.267 6.982 3.036 14.978 3.851 23.444 1.332 13.845 2.71 28.162 11.048 39.619 8.422 11.573 21.669 17.304 34.479 22.846 7.751 3.354 15.072 6.521 20.908 10.768 5.724 4.166 10.924 10.093 16.429 16.369 9.261 10.557 18.837 21.472 32.649 25.957 4.694 1.524 9.475 2.119 14.29 2.119 8.756 0 17.63-1.967 26.313-3.891 8.441-1.871 16.414-3.638 23.978-3.638s15.537 1.767 23.978 3.638c13.46 2.983 27.375 6.068 40.603 1.772 13.811-4.485 23.387-15.4 32.648-25.957 5.505-6.275 10.706-12.203 16.429-16.369 5.836-4.247 13.157-7.414 20.908-10.768 12.81-5.543 26.057-11.273 34.479-22.846 8.338-11.457 9.715-25.773 11.048-39.618.815-8.466 1.585-16.463 3.852-23.444 2.13-6.561 6.102-13.232 10.308-20.295 7.223-12.131 14.692-24.675 14.692-39.473 0-14.797-7.469-27.342-14.692-39.473-4.205-7.063-8.177-13.734-10.308-20.295-2.267-6.981-3.037-14.978-3.852-23.444-1.332-13.845-2.71-28.161-11.048-39.618-8.422-11.573-21.669-17.304-34.479-22.846-7.751-3.354-15.072-6.521-20.908-10.768-5.724-4.166-10.924-10.093-16.429-16.369-9.261-10.557-18.837-21.472-32.648-25.957-13.229-4.295-27.144-1.211-40.603 1.772-8.441 1.871-16.414 3.638-23.978 3.638s-15.537-1.767-23.978-3.638c-13.459-2.983-27.376-6.067-40.603-1.772-13.812 4.484-23.388 15.4-32.649 25.957-5.505 6.275-10.705 12.203-16.429 16.369-5.836 4.247-13.157 7.415-20.908 10.768-12.81 5.542-26.057 11.273-34.479 22.846-8.338 11.457-9.715 25.773-11.048 39.618-.815 8.465-1.584 16.461-3.851 23.444zm18.782-22.008c1.192-12.386 2.318-24.084 8.245-32.229 6.011-8.259 16.841-12.945 28.308-17.906 8.16-3.53 16.598-7.181 23.778-12.407 7.073-5.147 13.075-11.988 18.879-18.604 8.288-9.448 16.117-18.372 26.005-21.582 9.339-3.031 20.698-.515 32.725 2.15 8.858 1.963 18.018 3.993 27.224 3.993s18.366-2.03 27.224-3.993c12.025-2.666 23.383-5.184 32.725-2.15 9.888 3.21 17.717 12.134 26.005 21.582 5.804 6.616 11.806 13.457 18.879 18.604 7.18 5.226 15.618 8.877 23.778 12.407 11.466 4.961 22.296 9.646 28.308 17.906 5.927 8.145 7.053 19.843 8.245 32.229.856 8.897 1.742 18.097 4.516 26.64 2.649 8.159 7.243 15.874 11.686 23.336 6.47 10.866 12.581 21.129 12.581 31.799s-6.111 20.934-12.581 31.799c-4.443 7.461-9.037 15.177-11.686 23.336-2.774 8.543-3.66 17.743-4.516 26.64-1.192 12.386-2.318 24.085-8.245 32.229-6.011 8.259-16.841 12.945-28.308 17.906-8.16 3.53-16.598 7.181-23.778 12.407-7.073 5.147-13.075 11.989-18.879 18.604-8.288 9.448-16.117 18.371-26.005 21.582-9.34 3.033-20.699.515-32.725-2.15-8.858-1.963-18.018-3.993-27.224-3.993s-18.366 2.03-27.224 3.993c-12.025 2.665-23.385 5.183-32.725 2.15-9.888-3.21-17.717-12.134-26.005-21.582-5.804-6.616-11.806-13.457-18.879-18.604-7.18-5.226-15.618-8.876-23.778-12.407-11.466-4.961-22.296-9.646-28.308-17.906-5.927-8.145-7.053-19.844-8.245-32.229-.856-8.897-1.741-18.096-4.515-26.639-2.649-8.159-7.243-15.874-11.686-23.336-6.47-10.866-12.581-21.129-12.581-31.8 0-10.67 6.111-20.933 12.581-31.799 4.442-7.462 9.037-15.178 11.686-23.336 2.773-8.543 3.659-17.743 4.515-26.64z" fill="#000000" data-original="#000000" style="" class=""/><path d="m228.983 355.427c-.438 0-.875-.007-1.314-.022-11.088-.376-21.514-5.484-28.605-14.016l-37.233-44.799c-8.253-9.931-6.889-24.725 3.042-32.979l10.438-8.675c9.932-8.253 24.724-6.889 32.979 3.042l18.758 22.57c1.054 1.268 2.398 1.497 3.105 1.521.7.024 2.062-.113 3.2-1.308.063-.066.127-.131.193-.195l95.806-93.476c4.304-4.463 10.082-7.001 16.285-7.152 6.244-.156 12.192 2.141 16.721 6.455l9.827 9.362c9.35 8.906 9.71 23.758.804 33.108-.052.055-.105.108-.158.161l-50.911 50.321c-2.947 2.913-7.696 2.884-10.606-.062-2.912-2.946-2.884-7.695.061-10.606l50.818-50.23c3.135-3.365 2.984-8.653-.354-11.833l-9.828-9.362c-1.628-1.551-3.764-2.381-6.011-2.321-2.248.055-4.34.981-5.891 2.609-.064.066-.128.131-.193.195l-95.81 93.479c-3.773 3.899-9.055 6.031-14.462 5.842-5.479-.185-10.63-2.709-14.133-6.925l-18.758-22.57c-2.967-3.57-8.286-4.06-11.855-1.094l-10.439 8.675c-3.57 2.967-4.06 8.285-1.094 11.855l37.233 44.799c4.357 5.243 10.764 8.382 17.577 8.612 6.807.236 13.417-2.467 18.119-7.403.052-.055.105-.108.158-.161l42.049-41.562c2.947-2.913 7.696-2.884 10.607.062 2.912 2.946 2.884 7.695-.061 10.606l-41.973 41.487c-7.343 7.666-17.512 11.99-28.091 11.99z" fill="#000000" data-original="#000000" style="" class=""/></g></g></svg>
